# xmcd
#
# Track frame offsets: 
#        150
#        14033
#        29603
#        46032
#        62250
#        78289
#        89857
#        102982
#        118403
#        134599
#        151249
#        164027
#
# Disc length: 2338 seconds
#
# Revision: 0
# Processed by: cddbd v1.4PL0 Copyright (c) Steve Scherf et al.
# Submitted via: ExactAudioCopy v0.90a11
#
DISCID=a509200c
DTITLE=Victor Mecyssne - Skinnybones
DYEAR=1900
DGENRE=
TTITLE0=Mellow Sounds
TTITLE1=Baby's Got the Goods
TTITLE2=Salad Days
TTITLE3=Dear Old Dad
TTITLE4=Thunder Rollin' 'Cross Arkansas
TTITLE5=Where Does My Paycheck Go?
TTITLE6=Mister Cinnamon
TTITLE7=You'll Be Coming Home
TTITLE8=Who Is She?
TTITLE9=Jazz Man
TTITLE10=Dos Corazones
TTITLE11=The Very Last Leaf
EXTD=
EXTT0=
EXTT1=
EXTT2=
EXTT3=
EXTT4=
EXTT5=
EXTT6=
EXTT7=
EXTT8=
EXTT9=
EXTT10=
EXTT11=
PLAYORDER=
